<svg height="716" viewBox="0 0 658 716" width="658" xmlns="http://www.w3.org/2000/svg"><g fill="none" fill-rule="evenodd"><path d="m0 0h658v716h-658z"/><path d="m123.738545 83.3561277-6.024039-6.020811c19.688775-19.6676725 19.684116-51.656139-.009318-71.31915856l6.033357-6.01615814c23.015273 22.9758615 23.015273 60.3802662 0 83.3561277zm-16.450796-16.4292764 6.024038 6.0301167c17.266114-17.2481811 17.266114-45.3096272 0-62.5485026l-6.024038 6.0161581c13.939615 13.9167278 13.939615 36.5855 0 50.5022278zm-4.724188-4.718008c11.339914-11.3204275 11.339914-29.7504371-.004659-41.0662118l-6.0240383 6.0161582c8.0227333 8.0122384 8.0227333 21.0356156 0 29.0292426zm-79.2722437-56.19268516-6.0333562-6.01615814c-23.01061481 22.9758615-23.01061481 60.3802662 0 83.3561277l6.0240383-6.020811c-19.68877472-19.6583667-19.68411576-51.6514861.0093179-71.31915856zm4.3840835 66.94080986 6.0286973-6.0301167c-13.9396153-13.9167278-13.9396153-36.5715414 0-50.5022278l-6.0286973-6.020811c-17.2707732 17.2388754-17.2707732 45.3049744 0 62.5531555zm10.752885-10.7481247 6.0286973-6.020811c-8.0134152-8.0075856-8.0134152-21.0309628.0046589-29.0292426l-6.0286972-6.0161582c-11.3399142 11.3297333-11.3399142 29.7504371-.004659 41.0662118zm45.9979349 85.0916477-12.4301114-89.7026398c5.7910901-.7444588 10.2823298-5.6299701 10.2823298-11.618211 0-6.4954036-5.2786043-11.76245-11.7825157-11.76245-6.5085703 0-11.7825157 5.2716993-11.7825157 11.76245 0 5.9882409 4.4912397 10.8737522 10.2776709 11.618211l-12.4254525 89.7026398c-17.0797558 11.799673-23.9889969 17.699509-20.7277233 17.699509 15.9072682-5.899836 27.9600037-8.849755 36.1582065-8.849755 10.8095959 0 42.0238397 4.876206 42.0238397 0 0-3.253905-9.864576-6.203823-29.5937283-8.849754z" fill="#000" fill-rule="nonzero" transform="translate(398 51)"/><g stroke="#000"><path d="m360 421c-24 0-57-29-57-56s24-67 72-68c1 0 13-91 102-91 59.333333 0 92.333333 26.333333 99 79 30 8 45 30.333333 45 67s-19 59.666667-57 69" stroke-width="11"/><rect height="45" rx="22.5" stroke-width="9" width="155" x="383.5" y="317.5"/><rect height="45" rx="22.5" stroke-width="9" width="155" x="383.5" y="371.5"/><rect height="45" rx="22.5" stroke-width="9" width="155" x="383.5" y="425.5"/><rect height="45" rx="22.5" stroke-width="9" width="155" x="383.5" y="425.5"/><path d="m128.310964 516h291.705984" stroke-width="9"/><path d="m508 516h90.501381" stroke-width="9"/><path d="m594.061025 675.506332v-163.506332" stroke-width="9"/><path d="m598.566637 669.55952h-361.468838" stroke-width="13"/><path d="m419 393h46.717235" stroke-width="9"/><path d="m419 449h46.717235" stroke-width="9"/><path d="m419 339h46.717235" stroke-width="9"/><path d="m462 575.501184v-105.565633" stroke-width="9"/></g><circle cx="484" cy="340" fill="#000" r="6"/><circle cx="508" cy="340" fill="#000" r="6"/><circle cx="484" cy="394" fill="#000" r="6"/><circle cx="508" cy="394" fill="#000" r="6"/><circle cx="484" cy="448" fill="#000" r="6"/><circle cx="508" cy="448" fill="#000" r="6"/><text fill="#000" font-family="Rockwell-Regular, Rockwell" font-size="144"><tspan x="26" y="643">Nephos</tspan></text></g></svg>
