<?xml version="1.0" encoding="UTF-8"?>
<svg width="658px" height="716px" viewBox="0 0 658 716" version="1.1" xmlns="http://www.w3.org/2000/svg" xmlns:xlink="http://www.w3.org/1999/xlink">
    <!-- Generator: Sketch 48.2 (47327) - http://www.bohemiancoding.com/sketch -->
    <title>Nephos</title>
    <desc>Created with Sketch.</desc>
    <defs>
        <rect id="path-1" x="0" y="0" width="658" height="716"></rect>
    </defs>
    <g id="Page-1" stroke="none" stroke-width="1" fill="none" fill-rule="evenodd">
        <g id="Nephos">
            <g id="Rectangle-11">
                <use fill="#73ACE3" fill-rule="evenodd" xlink:href="#path-1"></use>
                <rect stroke="#979797" stroke-width="1" x="0.5" y="0.5" width="657" height="715"></rect>
            </g>
            <g id="wifi-signal-tower" transform="translate(398.000000, 51.000000)" fill="#000000" fill-rule="nonzero">
                <path d="M123.738545,83.3561277 L117.714506,77.3353167 C137.403281,57.6676442 137.398622,25.6791777 117.705188,6.01615814 L123.738545,0 C146.753818,22.9758615 146.753818,60.3802662 123.738545,83.3561277 Z M107.287749,66.9268513 L113.311787,72.956968 C130.577901,55.7087869 130.577901,27.6473408 113.311787,10.4084654 L107.287749,16.4246235 C121.227364,30.3413513 121.227364,53.0101235 107.287749,66.9268513 Z M102.563561,62.2088433 C113.903475,50.8884158 113.903475,32.4584062 102.558902,21.1426315 L96.5348637,27.1587897 C104.557597,35.1710281 104.557597,48.1944053 96.5348637,56.1880323 L102.563561,62.2088433 Z M23.2913173,6.01615814 L17.2579611,0 C-5.75265371,22.9758615 -5.75265371,60.3802662 17.2579611,83.3561277 L23.2819994,77.3353167 C3.59322468,57.67695 3.59788364,25.6838306 23.2913173,6.01615814 Z M27.6754008,72.956968 L33.7040981,66.9268513 C19.7644828,53.0101235 19.7644828,30.3553099 33.7040981,16.4246235 L27.6754008,10.4038125 C10.4046276,27.6426879 10.4046276,55.7087869 27.6754008,72.956968 Z M38.4282858,62.2088433 L44.4569831,56.1880323 C36.4435679,48.1804467 36.4435679,35.1570695 44.461642,27.1587897 L38.4329448,21.1426315 C27.0930306,32.4723648 27.0930306,50.8930686 38.4282858,62.2088433 Z M84.4262207,147.300491 L71.9961093,57.5978512 C77.7871994,56.8533924 82.2784391,51.9678811 82.2784391,45.9796402 C82.2784391,39.4842366 76.9998348,34.2171902 70.4959234,34.2171902 C63.9873531,34.2171902 58.7134077,39.4888895 58.7134077,45.9796402 C58.7134077,51.9678811 63.2046474,56.8533924 68.9910786,57.5978512 L56.5656261,147.300491 C39.4858703,159.100164 32.5766292,165 35.8379028,165 C51.745171,159.100164 63.7979065,156.150245 71.9961093,156.150245 C82.8057052,156.150245 114.019949,161.026451 114.019949,156.150245 C114.019949,152.89634 104.155373,149.946422 84.4262207,147.300491 Z" id="Shape"></path>
            </g>
            <path d="" id="Path-5" stroke="#979797"></path>
            <path d="M360,421 C336,421 303,392 303,365 C303,338 327,298 375,297 C376,297 388,206 477,206 C536.333333,206 569.333333,232.333333 576,285 C606,293 621,315.333333 621,352 C621,388.666667 602,411.666667 564,421" id="Path-6" stroke="#000000" stroke-width="11"></path>
            <rect id="Rectangle-10" stroke="#000000" stroke-width="9" x="383.5" y="317.5" width="155" height="45" rx="22.5"></rect>
            <rect id="Rectangle-10" stroke="#000000" stroke-width="9" x="383.5" y="371.5" width="155" height="45" rx="22.5"></rect>
            <rect id="Rectangle-10" stroke="#000000" stroke-width="9" x="383.5" y="425.5" width="155" height="45" rx="22.5"></rect>
            <rect id="Rectangle-10" stroke="#000000" stroke-width="9" x="383.5" y="425.5" width="155" height="45" rx="22.5"></rect>
            <path d="M128.310964,516 L420.016948,516" id="Path-8" stroke="#000000" stroke-width="9"></path>
            <path d="M508,516 L598.501381,516" id="Path-8" stroke="#000000" stroke-width="9"></path>
            <path d="M594.061025,675.506332 L594.061025,512" id="Path-8" stroke="#000000" stroke-width="9"></path>
            <path d="M598.566637,669.55952 L237.097799,669.55952" id="Path-8" stroke="#000000" stroke-width="13"></path>
            <path d="M419,393 L465.717235,393" id="Path-8" stroke="#000000" stroke-width="9"></path>
            <path d="M419,449 L465.717235,449" id="Path-8" stroke="#000000" stroke-width="9"></path>
            <path d="M419,339 L465.717235,339" id="Path-8" stroke="#000000" stroke-width="9"></path>
            <path d="M462,575.501184 L462,469.935551" id="Path-9" stroke="#000000" stroke-width="9"></path>
            <circle id="Oval-3" fill="#000000" cx="484" cy="340" r="6"></circle>
            <circle id="Oval-3" fill="#000000" cx="508" cy="340" r="6"></circle>
            <circle id="Oval-3" fill="#000000" cx="484" cy="394" r="6"></circle>
            <circle id="Oval-3" fill="#000000" cx="508" cy="394" r="6"></circle>
            <circle id="Oval-3" fill="#000000" cx="484" cy="448" r="6"></circle>
            <circle id="Oval-3" fill="#000000" cx="508" cy="448" r="6"></circle>
            <text font-family="Rockwell-Regular, Rockwell" font-size="144" font-weight="normal" fill="#000000">
                <tspan x="26" y="643">Nephos</tspan>
            </text>
        </g>
    </g>
</svg>
